<svg xmlns="http://www.w3.org/2000/svg" width="314.782" height="401.587" viewBox="0 0 314.782 401.587">
  <g id="Grupo_74" data-name="Grupo 74" transform="translate(-3571.189 -2559)">
    <path id="Trazado_121" data-name="Trazado 121" d="M4278.291,3343.767a8.621,8.621,0,1,1-8.62-8.62A8.623,8.623,0,0,1,4278.291,3343.767Z" transform="translate(-405.709 -456.456)" fill="#fff"/>
    <g id="Grupo_60" data-name="Grupo 60" transform="translate(3571.189 2559)">
      <g id="Grupo_59" data-name="Grupo 59" transform="translate(0)">
        <g id="Grupo_55" data-name="Grupo 55">
          <path id="Trazado_122" data-name="Trazado 122" d="M3577.628,2627.988h-6.438V2559h65.722v6.438h-59.283Z" transform="translate(-3571.189 -2559)" fill="#1c1c1b"/>
        </g>
        <g id="Grupo_56" data-name="Grupo 56" transform="translate(249.06)">
          <path id="Trazado_123" data-name="Trazado 123" d="M4241.579,2627.988h-6.438v-62.55h-59.284V2559h65.723Z" transform="translate(-4175.856 -2559)" fill="#1c1c1b"/>
        </g>
        <g id="Grupo_57" data-name="Grupo 57" transform="translate(0 339.128)">
          <path id="Trazado_124" data-name="Trazado 124" d="M3636.911,3444.794h-65.722v-62.459h6.438v56.016h59.283Z" transform="translate(-3571.189 -3382.335)" fill="#1c1c1b"/>
        </g>
        <g id="Grupo_58" data-name="Grupo 58" transform="translate(249.06 339.128)">
          <path id="Trazado_125" data-name="Trazado 125" d="M4241.579,3444.794h-65.723v-6.443h59.284v-56.016h6.438Z" transform="translate(-4175.856 -3382.335)" fill="#1c1c1b"/>
        </g>
      </g>
    </g>
    <g id="Grupo_73" data-name="Grupo 73" transform="translate(3653.858 2624.978)">
      <g id="Grupo_61" data-name="Grupo 61" transform="translate(29.273 177.687)" style="mix-blend-mode: multiply;isolation: isolate">
        <ellipse id="Elipse_1" data-name="Elipse 1" cx="23.732" cy="40.971" rx="23.732" ry="40.971" transform="translate(0 47.463) rotate(-89.838)" fill="#bde4f3"/>
      </g>
      <g id="Grupo_63" data-name="Grupo 63" transform="translate(33.779 155.258)">
        <path id="Trazado_126" data-name="Trazado 126" d="M3926.926,3148.256c-.01.183-.021.366-.04.55-.016.16-.038.32-.061.48-.025.182-.053.365-.086.546-.029.161-.064.322-.1.482-.04.177-.082.355-.129.532-.043.161-.091.321-.141.481-.055.177-.112.352-.175.528-.056.157-.116.314-.178.471q-.11.277-.232.552c-.069.154-.14.308-.215.461-.089.183-.184.365-.282.547s-.21.389-.324.582c-.027.045-.053.09-.079.134q-.254.417-.54.829l-.109.155c-.194.274-.4.546-.61.815l-.125.152q-.285.351-.594.7c-.056.063-.111.127-.168.189q-.365.4-.762.793l-.148.141c-.2.195-.411.388-.624.58-.171.154-.347.307-.526.459s-.331.28-.5.419-.378.3-.572.447c-.178.136-.357.272-.542.407-.2.146-.408.29-.617.434-.191.132-.384.263-.582.394-.216.141-.439.281-.662.419-.279.174-.554.348-.845.517-.545.317-1.108.617-1.679.91-.164.083-.33.165-.5.247q-.667.33-1.354.638c-.154.069-.305.14-.46.207q-.9.388-1.82.742c-.108.042-.219.078-.328.119q-.783.291-1.585.556-.327.109-.658.213c-.295.093-.592.184-.89.271q-.376.11-.754.216-.452.125-.909.242-.382.1-.765.193c-.309.075-.62.146-.931.215-.257.057-.513.115-.772.169-.316.066-.635.127-.955.188-.244.047-.489.095-.734.138-.684.121-1.371.232-2.062.329-.1.014-.2.024-.3.038q-.9.122-1.814.216c-.232.025-.465.047-.7.068q-.585.054-1.172.1c-.246.018-.492.036-.739.051-.408.025-.817.044-1.227.062-.23.01-.461.022-.692.029-.354.011-.709.016-1.064.021-.249,0-.5.01-.748.01-.379,0-.757-.005-1.136-.011-.226,0-.452,0-.677-.009-.349-.01-.7-.026-1.044-.041-.243-.01-.486-.018-.729-.031-.377-.02-.752-.049-1.127-.077-.214-.015-.428-.027-.641-.044-.458-.038-.913-.084-1.368-.133-.128-.013-.258-.023-.387-.038q-.875-.1-1.743-.221c-.094-.013-.187-.03-.282-.044-.5-.073-.989-.149-1.48-.234-.206-.035-.409-.077-.614-.115-.377-.07-.755-.138-1.129-.215-.2-.04-.388-.085-.582-.127-.411-.089-.821-.18-1.227-.277-.228-.054-.452-.113-.678-.17-.37-.094-.738-.191-1.1-.293q-.313-.087-.625-.178-.871-.254-1.722-.535c-.1-.033-.2-.064-.305-.1-.653-.221-1.294-.458-1.928-.7-.259-.1-.514-.2-.769-.31-.2-.083-.4-.165-.6-.25-.287-.123-.568-.252-.85-.381-.184-.083-.37-.165-.551-.251-.309-.147-.611-.3-.914-.453-.148-.075-.3-.147-.446-.224q-.669-.35-1.315-.722c-4.494-2.595-7.582-5.7-9.262-8.986a13.159,13.159,0,0,1-1.5-6.056l-.027,18.908c-.015,5.442,3.576,10.891,10.767,15.042q.645.373,1.314.722c.148.077.3.15.451.227.3.152.6.3.909.45.183.087.37.169.555.254.281.127.561.256.846.378.2.086.405.168.608.252s.384.163.58.24c.061.024.125.044.186.068.634.247,1.275.484,1.929.7.1.034.2.065.3.1q.852.282,1.724.535c.1.029.19.062.287.089s.224.058.335.089c.367.1.736.2,1.108.293.225.057.448.115.674.169.407.1.816.189,1.228.277.154.033.3.072.459.1l.125.024c.372.076.748.145,1.124.214.207.038.411.079.619.115.49.084.984.161,1.479.233.09.013.179.029.269.042h.013q.869.123,1.743.221c.129.014.26.025.39.038.455.048.909.094,1.365.132l.034,0c.2.017.408.027.612.042.373.027.746.055,1.121.076.243.013.487.02.731.03.348.015.695.032,1.043.041l.084,0c.195,0,.39,0,.584.006.381.006.763.012,1.145.012.249,0,.5-.007.744-.01.355,0,.711-.009,1.066-.021l.2,0c.166-.006.33-.018.5-.025.41-.017.819-.037,1.228-.062.246-.015.492-.033.737-.051q.588-.044,1.174-.1c.136-.013.274-.021.41-.034.1-.01.19-.024.285-.034q.911-.095,1.814-.216c.1-.013.2-.023.3-.038.692-.1,1.379-.208,2.063-.329.064-.012.129-.02.192-.031.182-.033.361-.072.543-.107.318-.061.637-.122.953-.188.26-.054.517-.112.774-.169.311-.07.621-.14.928-.215.257-.062.513-.128.769-.194q.455-.117.906-.241.381-.106.758-.218.445-.131.886-.27c.129-.041.26-.077.388-.118.093-.03.181-.065.274-.1q.8-.265,1.58-.555c.11-.041.222-.079.332-.12q.925-.352,1.818-.742c.156-.067.308-.138.462-.208q.686-.308,1.353-.637c.166-.083.333-.164.5-.248.57-.293,1.133-.593,1.678-.91.15-.087.3-.175.445-.263s.265-.17.4-.253c.223-.139.446-.278.662-.419.2-.13.391-.261.582-.394.208-.144.416-.288.617-.434.185-.134.364-.27.542-.406q.292-.222.572-.447c.171-.138.337-.278.5-.418s.356-.305.527-.46c.07-.063.147-.125.216-.188.14-.129.273-.26.408-.391.049-.047.1-.094.148-.142.265-.261.518-.526.761-.792.058-.063.113-.126.169-.19q.308-.346.594-.7c.041-.05.083-.1.124-.15.019-.024.04-.047.058-.071.194-.246.376-.495.553-.745l.109-.155c.189-.274.37-.551.54-.829.027-.045.053-.09.08-.135.063-.1.127-.21.186-.315.05-.088.09-.177.137-.265.1-.182.193-.364.282-.548q.113-.23.215-.461.123-.276.233-.553c.033-.083.073-.165.1-.247s.047-.149.074-.223c.063-.176.12-.352.175-.529.05-.16.1-.32.141-.481.048-.177.09-.355.13-.533.021-.1.05-.192.07-.287.013-.065.019-.13.03-.195.034-.182.061-.365.086-.547.022-.159.044-.319.06-.479.019-.183.029-.367.04-.551.005-.107.02-.215.023-.321s0-.214,0-.321l.026-18.909C3926.953,3147.827,3926.937,3148.042,3926.926,3148.256Z" transform="translate(-3853.949 -3126.28)" fill="#5573a4"/>
        <g id="Grupo_62" data-name="Grupo 62" transform="translate(0 0)">
          <ellipse id="Elipse_2" data-name="Elipse 2" cx="21.126" cy="36.472" rx="21.126" ry="36.472" transform="matrix(0.003, -1, 1, 0.003, 0, 42.251)" fill="#14336d"/>
        </g>
      </g>
      <path id="Trazado_127" data-name="Trazado 127" d="M3890.607,3196.6c10.5,0,20.378-2.269,27.822-6.388a27.739,27.739,0,0,0,8.5-6.909c0-.012,0-.024,0-.036l.01-7.091c-.919,4.183-4.408,8.105-10.059,11.232-14.459,8-38.065,8-52.621,0-5.823-3.2-9.391-7.236-10.264-11.53l-.01,7.181c0,.016,0,.031,0,.047a27.927,27.927,0,0,0,8.729,7.109C3870.2,3194.332,3880.111,3196.6,3890.607,3196.6Z" transform="translate(-3820.17 -2987.766)" fill="#fff"/>
      <g id="Grupo_64" data-name="Grupo 64" transform="translate(59.41 200.937)">
        <circle id="Elipse_3" data-name="Elipse 3" cx="4.178" cy="4.178" r="4.178" transform="translate(0 5.909) rotate(-45)" fill="#14336d"/>
        <circle id="Elipse_4" data-name="Elipse 4" cx="4.178" cy="4.178" r="4.178" transform="translate(9.986 5.909) rotate(-45)" fill="#bde4f3"/>
      </g>
      <g id="Grupo_66" data-name="Grupo 66" transform="translate(39.268 143.905)">
        <path id="Trazado_128" data-name="Trazado 128" d="M3929.3,3112.874c-.008.156-.018.312-.033.467-.014.136-.033.272-.051.408-.021.155-.044.31-.073.464-.025.137-.055.273-.085.409-.034.151-.07.3-.11.453s-.077.273-.12.409-.1.3-.148.448c-.047.134-.1.267-.152.4q-.093.235-.2.47c-.059.131-.119.261-.183.392-.076.155-.157.31-.24.465s-.178.331-.275.495l-.067.114c-.144.237-.3.471-.459.705l-.092.131q-.248.349-.519.693c-.035.044-.072.087-.107.13q-.242.3-.5.592c-.048.054-.095.108-.144.161q-.311.339-.647.673c-.041.04-.084.08-.125.121-.171.166-.35.329-.531.493-.146.131-.3.26-.447.39s-.281.238-.427.356-.321.254-.485.38-.3.232-.461.346-.347.246-.524.368c-.163.112-.326.224-.495.335s-.373.239-.562.356c-.237.147-.471.295-.718.439-.464.269-.942.525-1.427.773-.139.071-.28.14-.421.21q-.566.281-1.151.542c-.131.058-.26.119-.392.176q-.76.33-1.546.631c-.092.035-.186.067-.279.1q-.665.247-1.348.473c-.186.061-.372.122-.56.181q-.376.118-.757.23c-.212.063-.426.125-.641.184q-.385.107-.773.207c-.216.055-.432.111-.651.164-.262.064-.526.124-.791.183-.218.049-.436.1-.655.143-.27.056-.541.108-.812.16-.208.039-.415.08-.624.117-.581.1-1.165.2-1.754.28-.083.012-.168.021-.252.032q-.768.1-1.542.184c-.2.02-.395.04-.592.058q-.5.046-1,.083c-.209.015-.418.031-.628.044-.347.021-.695.038-1.043.052-.2.008-.392.018-.588.024-.3.009-.6.013-.9.018-.212,0-.424.009-.636.009-.321,0-.643-.005-.965-.01-.192,0-.383,0-.576-.008-.3-.008-.591-.022-.887-.034-.207-.009-.413-.015-.62-.026-.32-.017-.639-.042-.958-.065-.182-.013-.363-.023-.544-.038-.389-.032-.776-.072-1.163-.112-.109-.012-.22-.02-.329-.032q-.744-.083-1.482-.187l-.24-.038c-.421-.062-.841-.126-1.259-.2-.175-.03-.348-.065-.522-.1-.32-.059-.641-.118-.959-.183-.166-.033-.33-.072-.5-.108-.35-.075-.7-.153-1.043-.235-.193-.047-.384-.1-.576-.145-.315-.08-.628-.162-.938-.248-.178-.05-.354-.1-.531-.152q-.739-.216-1.464-.455c-.086-.029-.174-.054-.259-.084-.555-.188-1.1-.389-1.639-.6-.22-.086-.437-.174-.654-.263-.171-.07-.344-.14-.513-.213-.244-.1-.484-.215-.723-.324-.157-.071-.314-.141-.469-.214-.263-.124-.52-.255-.777-.385-.126-.064-.254-.125-.379-.19-.378-.2-.752-.4-1.118-.613a19.442,19.442,0,0,1-7.874-7.639,11.184,11.184,0,0,1-1.278-5.148l-.023,10.026c-.013,4.625,3.04,9.259,9.152,12.787q.549.316,1.118.613c.126.066.255.128.383.192.256.13.511.259.772.383.155.074.314.143.472.216.239.109.478.217.72.322.171.073.344.143.517.214s.327.139.493.2c.051.021.106.037.157.057.539.21,1.084.411,1.639.6.086.029.173.055.259.084q.724.24,1.465.455c.083.024.162.052.244.076s.19.049.285.075q.468.13.942.249c.191.049.381.1.573.144.346.083.694.16,1.043.236.13.028.259.061.39.088l.106.021c.317.065.636.123.956.182.175.032.35.068.525.1.417.072.837.136,1.258.2.076.011.151.025.228.036H3891q.738.1,1.481.188c.11.012.221.021.332.032.386.041.772.08,1.161.113l.029,0c.173.014.347.023.521.036.317.023.635.047.953.065.207.011.415.017.622.026.3.012.59.027.886.035l.072,0c.165,0,.331,0,.5,0,.325.005.649.011.973.01.211,0,.422-.006.633-.009.3,0,.6-.009.906-.018l.167,0c.14,0,.28-.015.42-.021.349-.015.7-.031,1.043-.053.21-.013.419-.028.628-.043q.5-.037,1-.083c.116-.01.233-.017.349-.029.082-.008.162-.021.243-.029q.774-.081,1.542-.184c.084-.012.169-.02.253-.032.588-.083,1.172-.177,1.753-.28.055-.009.11-.017.164-.026.155-.027.307-.061.461-.091.271-.052.542-.1.811-.159.22-.046.439-.095.658-.144.264-.059.527-.119.79-.182.218-.053.436-.109.653-.165.258-.067.515-.135.771-.206.216-.06.43-.122.644-.184q.379-.112.753-.229c.11-.035.222-.065.33-.1.079-.025.154-.056.232-.082q.68-.225,1.344-.471c.094-.035.188-.067.282-.1q.787-.3,1.546-.63c.132-.057.262-.118.393-.177q.584-.262,1.15-.542c.141-.07.282-.139.422-.21.485-.249.963-.5,1.427-.774.127-.074.254-.148.378-.224s.225-.144.34-.215c.19-.118.379-.236.563-.357.168-.11.332-.222.495-.335s.353-.244.523-.368.31-.23.461-.345.328-.253.486-.38.287-.237.427-.355.3-.26.448-.391c.06-.054.125-.106.183-.16.119-.11.232-.221.347-.332.041-.04.084-.08.125-.12.225-.222.44-.447.647-.673l.144-.161q.262-.294.5-.593l.105-.128.049-.06c.165-.21.32-.421.47-.633l.093-.132q.242-.35.458-.7l.068-.115c.053-.089.107-.178.158-.268s.076-.15.116-.225c.083-.155.164-.31.24-.466.064-.13.124-.26.183-.392.07-.156.136-.313.2-.47.028-.071.062-.14.088-.21s.041-.126.063-.19c.053-.15.1-.3.148-.449s.083-.272.12-.409.076-.3.11-.453c.018-.081.043-.163.06-.244.011-.055.016-.11.026-.165.028-.155.052-.31.073-.465.019-.135.038-.271.051-.407.016-.156.024-.312.033-.469,0-.092.017-.182.02-.273s0-.182,0-.272l.022-10.026C3929.325,3112.51,3929.312,3112.692,3929.3,3112.874Z" transform="translate(-3867.266 -3094.193)" fill="#000526"/>
        <g id="Grupo_65" data-name="Grupo 65" transform="translate(0 0)">
          <ellipse id="Elipse_5" data-name="Elipse 5" cx="17.958" cy="31.004" rx="17.958" ry="31.004" transform="translate(0 35.917) rotate(-89.838)" fill="#5573a4"/>
        </g>
      </g>
      <g id="Grupo_67" data-name="Grupo 67" transform="translate(57.641 154.582)">
        <ellipse id="Elipse_6" data-name="Elipse 6" cx="7.334" cy="12.661" rx="7.334" ry="12.661" transform="matrix(0.003, -1, 1, 0.003, 0, 14.667)" fill="#14336d"/>
      </g>
      <path id="Trazado_129" data-name="Trazado 129" d="M3841.9,2838.39c-47.456,0-70.008,18.259-70.008,18.259h0l57.662,93.86h25.254l57.555-93.863S3889.355,2838.39,3841.9,2838.39Z" transform="translate(-3771.891 -2789.289)" fill="#bde4f3" style="mix-blend-mode: multiply;isolation: isolate"/>
      <g id="Grupo_72" data-name="Grupo 72" transform="translate(25.742)">
        <g id="Grupo_71" data-name="Grupo 71" style="isolation: isolate">
          <g id="Grupo_68" data-name="Grupo 68" transform="translate(0.435)">
            <path id="Trazado_130" data-name="Trazado 130" d="M3924.141,2744.87l-44.2,25.689-44.494-25.688,44.2-25.689Z" transform="translate(-3835.442 -2719.181)" fill="#fff"/>
          </g>
          <g id="Grupo_69" data-name="Grupo 69" transform="translate(44.493 25.688)">
            <path id="Trazado_131" data-name="Trazado 131" d="M3987.047,2781.548l-.435,55.469-44.2,25.689.435-55.469Z" transform="translate(-3942.408 -2781.548)" fill="#000526"/>
          </g>
          <g id="Grupo_70" data-name="Grupo 70" transform="translate(0 25.689)">
            <path id="Trazado_132" data-name="Trazado 132" d="M3879.315,2807.237l-.435,55.469-44.494-25.688.435-55.469Z" transform="translate(-3834.387 -2781.549)" fill="#5573a4"/>
          </g>
        </g>
      </g>
    </g>
  </g>
</svg>
