<svg xmlns="http://www.w3.org/2000/svg" width="184.641" height="223.187" viewBox="0 0 184.641 223.187">
  <g id="Grupo_1" data-name="Grupo 1" transform="translate(0 442.841)">
    <path id="Trazado_1" data-name="Trazado 1" d="M95.757-110.658c-50.348,0-91.163,24.967-91.163,55.766H186.92c0-30.8-40.815-55.766-91.163-55.766" transform="translate(-2.279 -164.767)" fill="#338ba0" fill-rule="evenodd"/>
    <path id="Trazado_2" data-name="Trazado 2" d="M174.625-221.79c.324-13.09-55.371-14.576-55.6-1.484-.778,48.6-16.836,58.441-16.836,58.441s7.877,15.155,42.68,15.155c38.643,0,41.272-15.155,41.272-15.155s-12.694-4.884-11.517-56.957" transform="translate(-50.687 -104.39)" fill="#ffa37b"/>
    <path id="Trazado_3" data-name="Trazado 3" d="M117.41-190.679s-.328,16.049-3.011,24.548-12.209,21.983-12.209,21.983,13.014.2,17.23-.69c40.893-8.6,56.29-23.9,56.29-23.9l-1.31-17.032Z" transform="translate(-50.687 -125.075)" fill="#ee946c"/>
    <path id="Trazado_4" data-name="Trazado 4" d="M133.585-423.158c-29.657,0-57.652,31.478-53.708,69.8,4.156,40.494,33.554,72.514,53.708,72.514,19.679,0,49.259-32.659,53.721-72.514,4.243-38.306-24.052-69.8-53.721-69.8" transform="translate(-39.435 -9.763)" fill="#ffc9aa"/>
    <path id="Trazado_5" data-name="Trazado 5" d="M79.876-353.353c4.033,39.287,31.8,70.506,51.858,72.338-15.523-12.17-30.33-36.016-33.189-63.874-3.944-38.327,24.051-69.8,53.708-69.8a43.372,43.372,0,0,1,9.225,1.082c-8.4-6.026-18.056-9.546-27.894-9.546-29.657,0-57.652,31.478-53.708,69.8" transform="translate(-39.435 -9.764)" fill="#ffbe99"/>
    <path id="Trazado_6" data-name="Trazado 6" d="M129.014-442.841c-21.973,0-45.812,15.367-51.972,31.553-5.622,14.7-4.353,37.653-3.885,43.817a4.493,4.493,0,0,0,1.187,2.718,4.562,4.562,0,0,0,7.84-2.2c1.967-9.878,5.675-24.706,10.626-27.589,1.924-1.111,11.716-6.089,15.377-7.946a4.434,4.434,0,0,1,2.911-.4c8.709,1.732,51.894,10.516,56.6,15.246,3.833,3.833,6.511,11.782,8.167,18.314a4.553,4.553,0,0,0,8.161,1.456l.943-1.359a4.5,4.5,0,0,0,.81-2.378c.277-6.156.972-32.417-6.539-44.434-6.124-9.8-27.219-26.827-50.229-26.794" transform="translate(-36.059 0)" fill="#001c21"/>
    <path id="Trazado_7" data-name="Trazado 7" d="M33.248-249.288c-.3-3.169,1.788-9.1,1.788-9.1l-6.616-11.423-12.3,43.159,26.842-12s-9.414-7.47-9.716-10.639" transform="translate(-7.996 -85.825)" fill="#ffa37b"/>
    <path id="Trazado_8" data-name="Trazado 8" d="M60.985-247.333c-2.866,1.816-4.743,6.569-6.78,11.1s-16.976,16.524-16.976,16.524L52.847-200.02s7.016-6.791,9.28-10.412,2.716-13.129,2.716-14.487.226-10.865,1.132-12.9S70.032-245.4,69.6-246.2c-1.584-2.887-5.894-2.859-8.611-1.137" transform="translate(-18.466 -96.387)" fill="#ffa37b"/>
    <path id="Trazado_9" data-name="Trazado 9" d="M64.829-294.8H187.847v-63.516H64.829Z" transform="translate(-32.156 -41.927)" fill="#a65b35" fill-rule="evenodd"/>
    <path id="Trazado_10" data-name="Trazado 10" d="M64.829-342.557s45.426,5.019,55.59,7.335c36.76,8.377,67.429,40.425,67.429,40.425v-63.516H64.829Z" transform="translate(-32.156 -41.927)" fill="#dd7946"/>
    <path id="Trazado_11" data-name="Trazado 11" d="M264.462-345.832H255.81a5.291,5.291,0,0,0-5.275,5.275v40.3a5.291,5.291,0,0,0,5.275,5.276h8.651a5.291,5.291,0,0,0,5.275-5.276v-40.3a5.291,5.291,0,0,0-5.275-5.275" transform="translate(-124.268 -48.118)" fill="#001c21"/>
    <path id="Trazado_12" data-name="Trazado 12" d="M264.986-336.32a4.672,4.672,0,0,0-4.673,4.672,4.673,4.673,0,0,0,4.673,4.672,4.673,4.673,0,0,0,4.672-4.672,4.672,4.672,0,0,0-4.672-4.672" transform="translate(-129.119 -52.836)" fill="#005268"/>
    <path id="Trazado_13" data-name="Trazado 13" d="M266.8-332.658a2.829,2.829,0,0,0-2.826,2.826,2.829,2.829,0,0,0,2.826,2.826,2.829,2.829,0,0,0,2.826-2.826,2.829,2.829,0,0,0-2.826-2.826" transform="translate(-130.936 -54.652)" fill="#99c5d0"/>
    <path id="Trazado_14" data-name="Trazado 14" d="M12.089-118.993H40.415v-56.8H12.089Z" transform="translate(-5.996 -132.46)" fill="#ffc9aa" fill-rule="evenodd"/>
    <path id="Trazado_15" data-name="Trazado 15" d="M77.271-295.986s8.452,3.4,11.89,2.15,4.711-4.527,4.619-5.433-16.274-1.714-16.274-1.714Z" transform="translate(-38.327 -70.363)" fill="#ffa37b"/>
    <path id="Trazado_16" data-name="Trazado 16" d="M54.785-295.405c-5.772-1.347-14.662-5.9-16.272-5.772s-13.153.556-14.625,1.019-11.883,6.338-13.014,7.923S-.782-276.844.123-272.77s6,43.913,6,43.913l28.293,4s4.188-9.418,1.132-16.751c-4.159-9.979-17.19-16-17.19-26.276,0-3.858,7.23-7.626,9.8-5.57,2.774,2.224,5.634,5.508,6.849,6.193,1.294.728,6.849,1.63,6.326-1.879a84.022,84.022,0,0,0-2.35-8.609s11.11,5.287,13.318-.226c1.472-3.673-13.58-12.676-13.58-12.676s10.963,1.516,13.241.226c2.34-1.324,4.757-4.53,2.829-4.98" transform="translate(-0.034 -70.265)" fill="#ffc9aa"/>
    <path id="Trazado_17" data-name="Trazado 17" d="M0-60.422H40.431v-61.394H0Z" transform="translate(0 -159.232)" fill="#99c5d0" fill-rule="evenodd"/>
  </g>
</svg>
