<svg xmlns="http://www.w3.org/2000/svg" xmlns:xlink="http://www.w3.org/1999/xlink" width="74.104" height="74.108" viewBox="0 0 74.104 74.108">
  <defs>
    <clipPath id="clip-path">
      <path id="Trazado_364" data-name="Trazado 364" d="M2457.459,450.213a34.531,34.531,0,1,1-34.529-34.532A34.532,34.532,0,0,1,2457.459,450.213Z" transform="translate(-2388.398 -415.681)" fill="none" stroke="#707070" stroke-width="4"/>
    </clipPath>
  </defs>
  <g id="Avatar" transform="translate(2 2)">
    <path id="Trazado_361" data-name="Trazado 361" d="M2457.168,449.4a35.052,35.052,0,1,1-35.05-35.054A35.052,35.052,0,0,1,2457.168,449.4Z" transform="translate(-2387.063 -414.347)" fill="none" stroke="#042f4b" stroke-linecap="round" stroke-linejoin="round" stroke-width="4"/>
    <g id="Grupo_118" data-name="Grupo 118" transform="translate(0.522 0.522)">
      <g id="Grupo_117" data-name="Grupo 117" clip-path="url(#clip-path)">
        <path id="Trazado_362" data-name="Trazado 362" d="M2470.172,472.057a11.661,11.661,0,1,1-11.663-11.66A11.661,11.661,0,0,1,2470.172,472.057Z" transform="translate(-2423.98 -442.902)" fill="none" stroke="#042f4b" stroke-linecap="round" stroke-linejoin="round" stroke-width="4"/>
        <path id="Trazado_363" data-name="Trazado 363" d="M2465.2,542.617a20.61,20.61,0,1,1-20.606-20.155A20.381,20.381,0,0,1,2465.2,542.617Z" transform="translate(-2410.065 -480.684)" fill="none" stroke="#042f4b" stroke-linecap="round" stroke-linejoin="round" stroke-width="4"/>
      </g>
    </g>
  </g>
</svg>
